<svg width="52" height="50" viewBox="0 0 52 50" fill="none" xmlns="http://www.w3.org/2000/svg">
<path d="M33.604 14.9164C31.378 13.383 28.7608 12.5735 26.0401 12.5735C23.2025 12.5735 20.4954 13.4504 18.2064 15.1098C15.3958 17.1469 11.4655 16.5218 9.42384 13.7112C7.38672 10.9006 8.0118 6.97029 10.8224 4.92867C15.2699 1.70435 20.5313 0 26.0401 0C31.3195 0 36.3966 1.57843 40.7317 4.55992C43.5917 6.52959 44.3158 10.4419 42.3461 13.302C40.3764 16.1621 36.4641 16.8861 33.604 14.9164Z" fill="#4B6DAF"/>
<path d="M49.0833 38.1026C46.6864 42.721 43.0124 46.4715 38.4525 48.9448C35.399 50.5997 31.5856 49.471 29.9262 46.4175C28.2713 43.3641 29.4001 39.5507 32.4535 37.8913C34.7964 36.6186 36.6896 34.6895 37.9218 32.3061C39.0775 30.0756 39.5857 27.5843 39.3833 25.1019C39.1045 21.6393 41.6858 18.6083 45.1484 18.334C45.3193 18.3205 45.4902 18.3115 45.6566 18.3115C48.8989 18.3115 51.651 20.8073 51.9163 24.0946C52.3076 28.9378 51.3273 33.7811 49.0833 38.1026Z" fill="#4B6DAF"/>
<path d="M12.617 25.1111C12.4192 27.5979 12.9228 30.0893 14.0786 32.3153C15.2882 34.6447 17.1275 36.5469 19.403 37.8195C22.4339 39.5149 23.5177 43.3418 21.8223 46.3728C20.127 49.4037 16.3001 50.4875 13.2691 48.7921C8.8396 46.3188 5.26002 42.6223 2.9171 38.1029C0.673118 33.7813 -0.307221 28.938 0.0840145 24.0993C0.349335 20.8075 3.10147 18.3162 6.34378 18.3162C6.51467 18.3162 6.68106 18.3252 6.85194 18.3387C10.3146 18.6175 12.8959 21.6485 12.617 25.1111Z" fill="#4B6DAF"/>
<path d="M26.0407 33.8981C30.4367 33.8981 34.0003 30.3344 34.0003 25.9384C34.0003 21.5425 30.4367 17.9788 26.0407 17.9788C21.6447 17.9788 18.0811 21.5425 18.0811 25.9384C18.0811 30.3344 21.6447 33.8981 26.0407 33.8981Z" fill="#F1646D"/>
</svg>
