<svg width="75" height="30" viewBox="0 0 75 30" fill="none" xmlns="http://www.w3.org/2000/svg">
<path d="M63.2823 8.81681C61.9666 7.91041 60.4196 7.43196 58.8115 7.43196C57.1342 7.43196 55.5341 7.95028 54.1811 8.93111C52.5198 10.1352 50.1967 9.76574 48.9899 8.10445C47.7858 6.44316 48.1553 4.12001 49.8166 2.91324C52.4454 1.00741 55.5553 0 58.8115 0C61.932 0 64.933 0.932982 67.4954 2.69528C69.1859 3.85951 69.6139 6.17203 68.4496 7.86257C67.2854 9.5531 64.9729 9.98104 63.2823 8.81681Z" fill="white"/>
<path d="M72.4313 22.5218C71.0146 25.2516 68.8429 27.4684 66.1477 28.9304C64.3428 29.9085 62.0888 29.2414 61.108 27.4365C60.1298 25.6317 60.797 23.3777 62.6018 22.3968C63.9866 21.6446 65.1057 20.5043 65.834 19.0955C66.5171 17.7771 66.8175 16.3045 66.6979 14.8373C66.5331 12.7906 68.0588 10.999 70.1055 10.8369C70.2065 10.8289 70.3075 10.8236 70.4059 10.8236C72.3223 10.8236 73.9491 12.2988 74.1059 14.2419C74.3372 17.1046 73.7577 19.9674 72.4313 22.5218Z" fill="white"/>
<path d="M50.8771 14.8427C50.7602 16.3126 51.0579 17.7852 51.741 19.1009C52.456 20.4778 53.5432 21.6022 54.8882 22.3544C56.6797 23.3565 57.3203 25.6185 56.3182 27.41C55.3161 29.2016 53.0541 29.8422 51.2625 28.8401C48.6444 27.3781 46.5285 25.1932 45.1437 22.5219C43.8173 19.9675 43.2378 17.1047 43.4691 14.2446C43.6259 12.2989 45.2527 10.8264 47.1691 10.8264C47.2701 10.8264 47.3685 10.8317 47.4695 10.8396C49.5162 11.0044 51.0419 12.796 50.8771 14.8427Z" fill="white"/>
<path d="M58.8117 20.0365C61.4101 20.0365 63.5165 17.9301 63.5165 15.3317C63.5165 12.7334 61.4101 10.627 58.8117 10.627C56.2133 10.627 54.1069 12.7334 54.1069 15.3317C54.1069 17.9301 56.2133 20.0365 58.8117 20.0365Z" fill="#F1646D"/>
<path d="M4.02674 4.58753C4.56184 4.58753 5.03345 4.12082 5.03345 3.57034C5.03345 3.04081 4.56184 2.5741 4.02674 2.5741C3.49163 2.5741 3.02002 3.04081 3.02002 3.57034C3.02002 4.12082 3.49163 4.58753 4.02674 4.58753Z" fill="white"/>
<path d="M7.047 4.58753C7.5821 4.58753 8.05371 4.12082 8.05371 3.57034C8.05371 3.04081 7.5821 2.5741 7.047 2.5741C6.5119 2.5741 6.04028 3.04081 6.04028 3.57034C6.04028 4.12082 6.5119 4.58753 7.047 4.58753Z" fill="white"/>
<path d="M20.897 6.07483C21.7129 7.04941 23.658 6.66471 23.658 4.96241V3.98783C23.658 3.73777 23.5339 3.58069 23.3033 3.58069C23.0934 3.58069 22.9485 3.74098 22.9485 3.98783V4.96241C22.9485 6.09728 21.2547 6.09728 21.2547 4.96241V3.98783C21.2547 3.76022 21.1305 3.58069 20.9206 3.58069C20.7107 3.58069 20.5452 3.74098 20.5452 3.98783V4.96241C20.5452 6.09728 18.8306 6.09728 18.8306 4.96241V3.98783C18.8306 3.76022 18.7271 3.58069 18.4965 3.58069C18.2867 3.58069 18.1211 3.74098 18.1211 3.98783V4.96241C18.1152 6.66471 20.0811 7.04941 20.897 6.07483Z" fill="#F1646D"/>
<path d="M18.5035 2.07068H23.2757C23.4894 2.07068 23.658 1.86095 23.658 1.59669C23.658 1.24014 23.5075 1.06396 23.2757 1.06396H18.5035C18.2897 1.06396 18.1211 1.21078 18.1211 1.53796C18.1181 1.83578 18.2897 2.07068 18.5035 2.07068Z" fill="#F1646D"/>
<path d="M34.7317 13.7718V1.96147C34.7317 0.764796 32.9512 0.764796 32.9512 1.96147V13.7718C32.9512 15.3515 31.6965 16.5481 30.1451 16.5481C28.684 16.5481 27.5196 15.6227 27.339 14.2441C27.339 11.3306 24.8747 8.91495 21.9073 8.91495C18.9399 8.91495 16.4982 11.353 16.4756 14.2441C16.3176 15.5525 15.108 16.5481 13.6921 16.5481C12.1406 16.5481 10.8859 15.3291 10.8859 13.7718C10.8859 9.99993 8.62487 7.53957 5.43167 7.53957C2.48683 7.53957 0 9.99993 0 12.9134C0 17.113 4.15439 18.8298 6.8928 18.1086C8.12492 17.7927 7.55401 16.0982 6.4122 16.4364C4.56402 16.9343 1.77723 15.7599 1.77723 12.9134C1.77723 10.9254 3.44479 9.30107 5.42844 9.30107C7.61852 9.30107 9.10223 10.903 9.10223 13.7718C9.10223 16.2545 11.1633 18.2682 13.6211 18.3064V18.3096H13.6888H13.7566V18.3064C15.0532 18.2873 16.2821 17.7289 17.111 16.8417C18.0013 18.5139 19.8494 19.6882 21.9041 19.6882C23.9587 19.6882 25.8069 18.4915 26.7197 16.8194C27.5454 17.7001 28.7614 18.2777 30.0516 18.3033V18.3096H30.1419H30.2096V18.3064C32.6481 18.2682 34.7317 16.2545 34.7317 13.7718ZM21.9041 17.9267C19.8946 17.9267 18.2754 16.2992 18.2754 14.292C18.2754 12.3039 19.8946 10.702 21.9041 10.702C23.9135 10.702 25.5553 12.3039 25.5553 14.292C25.5585 16.3024 23.9135 17.9267 21.9041 17.9267Z" fill="white"/>
<path d="M5.30358 28.4866H0.973164V21.4235C0.973164 21.1617 0.7571 20.9457 0.495388 20.9457C0.245849 20.9457 0.0297852 21.1587 0.0297852 21.4235V28.8822C0.0297852 29.1439 0.245849 29.36 0.495388 29.36H5.30358C5.54095 29.36 5.73266 29.1683 5.73266 28.9309C5.73266 28.6936 5.54399 28.4866 5.30358 28.4866Z" fill="white"/>
<path d="M14.3267 23.0576C13.2525 23.0576 12.5952 23.6054 12.1539 24.2871C11.8192 23.5963 11.174 23.0576 10.1728 23.0576C9.13508 23.0576 8.58427 23.6176 8.17953 24.2262V23.5932C8.17953 23.3315 7.97564 23.1276 7.71393 23.1276C7.46439 23.1276 7.2605 23.3437 7.2605 23.5932V28.9522C7.2605 29.2139 7.46439 29.4178 7.7261 29.4178C7.98781 29.4178 8.17953 29.2139 8.17953 28.9522V25.8391C8.17953 24.704 8.91902 23.8945 9.89892 23.8945C10.8788 23.8945 11.4874 24.5762 11.4874 25.7326V28.9553C11.4874 29.217 11.6913 29.4209 11.9409 29.4209C12.2026 29.4209 12.4065 29.217 12.4065 28.9553V25.8025C12.4065 24.5853 13.1703 23.8945 14.1015 23.8945C15.1027 23.8945 15.6992 24.564 15.6992 25.7569V28.9553C15.6992 29.217 15.9031 29.4209 16.1648 29.4209C16.4143 29.4209 16.6182 29.217 16.6182 28.9553V25.5408C16.6182 24.0132 15.7479 23.0576 14.3267 23.0576Z" fill="white"/>
<path d="M25.6775 23.0576C24.6033 23.0576 23.946 23.6054 23.5047 24.2871C23.17 23.5963 22.5279 23.0576 21.5236 23.0576C20.4859 23.0576 19.9351 23.6176 19.5304 24.2262V23.5932C19.5304 23.3315 19.3265 23.1276 19.0648 23.1276C18.8152 23.1276 18.6113 23.3437 18.6113 23.5932V28.9522C18.6113 29.2139 18.8152 29.4178 19.0769 29.4178C19.3386 29.4178 19.5304 29.2139 19.5304 28.9522V25.8391C19.5304 24.704 20.2699 23.8945 21.2497 23.8945C22.2296 23.8945 22.8383 24.5762 22.8383 25.7326V28.9553C22.8383 29.217 23.0422 29.4209 23.2917 29.4209C23.5534 29.4209 23.7573 29.217 23.7573 28.9553V25.8025C23.7573 24.5853 24.5211 23.8945 25.4524 23.8945C26.4535 23.8945 27.05 24.564 27.05 25.7569V28.9553C27.05 29.217 27.2539 29.4209 27.5156 29.4209C27.7652 29.4209 27.969 29.217 27.969 28.9553V25.5408C27.969 24.0132 27.0987 23.0576 25.6775 23.0576Z" fill="white"/>
<path d="M34.2836 23.7849C33.8302 23.3315 33.1607 23.1033 32.2903 23.1033C31.5021 23.1033 30.8813 23.2585 30.2727 23.5202C30.154 23.5689 30.0232 23.7119 30.0232 23.9006C30.0232 24.1166 30.2149 24.2931 30.4279 24.2931C30.4766 24.2931 30.5344 24.281 30.5953 24.2566C31.0487 24.0527 31.5752 23.9097 32.1929 23.9097C33.3493 23.9097 34.031 24.4818 34.031 25.5926V25.8086C33.4832 25.6534 32.9202 25.5469 32.1321 25.5469C30.5679 25.5469 29.4937 26.2377 29.4937 27.5402V27.5645C29.4937 28.8305 30.6501 29.4848 31.7973 29.4848C32.8837 29.4848 33.5989 28.9827 34.028 28.4227V28.9827C34.028 29.22 34.2075 29.4117 34.4692 29.4117C34.7188 29.4117 34.9105 29.22 34.9105 28.9583V25.5804C34.9135 24.7983 34.7005 24.2019 34.2836 23.7849ZM34.0432 27.0898C34.0432 28.0697 33.112 28.7605 31.9799 28.7605C31.143 28.7605 30.4279 28.3071 30.4279 27.5311V27.5067C30.4279 26.7307 31.0731 26.2286 32.2295 26.2286C32.9811 26.2286 33.5897 26.3595 34.0432 26.4903V27.0898Z" fill="white"/>
</svg>
