<svg enable-background="new 0 0 512 512" height="512" viewBox="0 0 512 512" width="512" xmlns="http://www.w3.org/2000/svg"><g id="_x32_5_Barriers_x2C__stop_x2C__obstacle_x2C__Traffic_Barrier_x2C__Road_Barrier"><g><g><path id="XMLID_1185_" d="m490.184 58.245v40.592h-52.041v-40.592c0-14.374 11.647-26.02 26.02-26.02 14.374-.001 26.021 11.646 26.021 26.02z" fill="#eae0f4"/><path id="XMLID_1183_" d="m73.857 58.245v40.592c-24.24 0-29.56 0-52.041 0v-40.592c0-14.374 11.647-26.02 26.02-26.02 14.374-.001 26.021 11.646 26.021 26.02z" fill="#eae0f4"/><path id="XMLID_1180_" d="m282.02 37.429v61.408h-52.04v-61.408c0-14.374 11.647-26.02 26.02-26.02 14.374-.001 26.02 11.646 26.02 26.02z" fill="#fd6c6e"/><path id="XMLID_1177_" d="m73.857 161.286v85.347c-24.24 0-29.56 0-52.041 0v-85.347z" fill="#eae0f4"/><path id="XMLID_1175_" d="m490.184 161.286v85.347h-52.041v-85.347z" fill="#eae0f4"/><path id="XMLID_1172_" d="m490.184 305.959v170.694h-52.041v-170.694z" fill="#eae0f4"/><path id="XMLID_1169_" d="m21.816 305.959h52.041v170.694h-52.041z" fill="#eae0f4"/><g fill="#ffe370"><path id="XMLID_1167_" d="m396.51 229.98 52.735 43.714 30.531 60.367c-20.021 0-74.093 0-88.469 0l-60.02-38.857-23.245-65.225h88.468z"/><path id="XMLID_1164_" d="m219.571 229.98 58.98 43.02 24.286 61.061h-88.47l-54.469-35.388-28.796-68.693z"/><path id="XMLID_1162_" d="m42.633 229.98 74.939 59.673 8.327 44.408c-15.796 0-110.57 0-124.898 0v-104.081z"/><path id="XMLID_1160_" d="m396.51 73.857 56.303 44.408 26.962 59.674c-20.021 0-74.093 0-88.469 0l-52.388-45.102-30.878-58.98z"/><path id="XMLID_1158_" d="m219.571 73.857 69.388 52.041 13.878 52.041h-88.47l-53.775-37.47-29.49-66.612z"/><path id="XMLID_1156_" d="m42.633 73.857 72.163 52.041 11.102 52.041c-20.56 0-105.913 0-124.898 0v-104.082z"/></g><path id="XMLID_1154_" d="m511 73.857v104.082c-4.736 0-23.017 0-31.224 0l-83.266-104.082z" fill="#007a9e"/><path id="XMLID_1152_" d="m308.041 73.857 83.265 104.082h-88.469l-83.266-104.082z" fill="#007a9e"/><path id="XMLID_1149_" d="m131.102 73.857 83.265 104.082h-88.469l-83.265-104.082z" fill="#007a9e"/><path id="XMLID_1147_" d="m511 229.98v104.082c-4.736 0-23.017 0-31.224 0l-83.266-104.082z" fill="#007a9e"/><path id="XMLID_1144_" d="m308.041 229.98 83.265 104.081h-88.469l-83.266-104.081z" fill="#007a9e"/><path id="XMLID_1142_" d="m131.102 229.98 83.265 104.082h-88.469l-83.265-104.082z" fill="#007a9e"/><path id="XMLID_1141_" d="m511 458.959v41.633h-93.673v-41.633z" fill="#d5d2f4"/><path id="XMLID_1140_" d="m94.674 458.959v41.633h-93.674v-41.633z" fill="#d5d2f4"/></g></g></g></svg>