<svg width="66" height="121" viewBox="0 0 66 121" fill="none" xmlns="http://www.w3.org/2000/svg">
<path d="M42.4529 18.8442C39.6408 16.9069 36.3344 15.8843 32.8973 15.8843C29.3126 15.8843 25.8926 16.9921 23.0009 19.0884C19.4502 21.662 14.4849 20.8723 11.9057 17.3216C9.3322 13.7709 10.1219 8.80568 13.6725 6.22647C19.2911 2.15313 25.938 0 32.8973 0C39.5669 0 45.9809 1.99406 51.4574 5.76062C55.0706 8.24893 55.9853 13.1915 53.4969 16.8046C51.0086 20.4178 46.0661 21.3325 42.4529 18.8442Z" fill="#243B67"/>
<path d="M62.0073 48.1358C58.9793 53.9703 54.3378 58.7083 48.5772 61.8329C44.7197 63.9236 39.9022 62.4976 37.8059 58.6401C35.7152 54.7827 37.1412 49.9651 40.9986 47.8688C43.9585 46.2611 46.3502 43.8239 47.9068 40.8129C49.3669 37.9951 50.0088 34.8478 49.7532 31.7118C49.4009 27.3374 52.6619 23.5083 57.0363 23.1618C57.2522 23.1447 57.4681 23.1334 57.6783 23.1334C61.7743 23.1334 65.2512 26.2864 65.5864 30.4393C66.0806 36.5578 64.8421 42.6763 62.0073 48.1358Z" fill="#243B67"/>
<path d="M15.9393 31.7232C15.6894 34.8648 16.3256 38.0121 17.7857 40.8243C19.3139 43.7671 21.6374 46.1701 24.5121 47.7779C28.3411 49.9197 29.7103 54.7543 27.5685 58.5833C25.4267 62.4124 20.5921 63.7815 16.7631 61.6397C11.1672 58.5151 6.64507 53.8453 3.68522 48.1358C0.850361 42.6763 -0.388117 36.5578 0.106137 30.4449C0.441321 26.2864 3.91814 23.139 8.0142 23.139C8.23008 23.139 8.44029 23.1504 8.65617 23.1674C13.0306 23.5197 16.2915 27.3487 15.9393 31.7232Z" fill="#243B67"/>
<path d="M32.8973 42.824C38.4508 42.824 42.9528 38.322 42.9528 32.7685C42.9528 27.215 38.4508 22.713 32.8973 22.713C27.3438 22.713 22.8418 27.215 22.8418 32.7685C22.8418 38.322 27.3438 42.824 32.8973 42.824Z" fill="#F1646D"/>
<path d="M11.6268 80.7914C12.4772 80.7914 13.2266 80.0497 13.2266 79.1749C13.2266 78.3334 12.4772 77.5917 11.6268 77.5917C10.7764 77.5917 10.027 78.3334 10.027 79.1749C10.027 80.0497 10.7764 80.7914 11.6268 80.7914Z" fill="#F1646D"/>
<path d="M16.4264 80.7914C17.2767 80.7914 18.0262 80.0497 18.0262 79.1749C18.0262 78.3334 17.2767 77.5917 16.4264 77.5917C15.576 77.5917 14.8265 78.3334 14.8265 79.1749C14.8265 80.0497 15.576 80.7914 16.4264 80.7914Z" fill="#F1646D"/>
<path d="M38.4357 83.1551C39.7323 84.7039 42.8235 84.0926 42.8235 81.3873V79.8386C42.8235 79.4412 42.6262 79.1916 42.2597 79.1916C41.9262 79.1916 41.696 79.4463 41.696 79.8386V81.3873C41.696 83.1908 39.0041 83.1908 39.0041 81.3873V79.8386C39.0041 79.4769 38.8068 79.1916 38.4733 79.1916C38.1397 79.1916 37.8767 79.4463 37.8767 79.8386V81.3873C37.8767 83.1908 35.1519 83.1908 35.1519 81.3873V79.8386C35.1519 79.4769 34.9875 79.1916 34.6211 79.1916C34.2875 79.1916 34.0244 79.4463 34.0244 79.8386V81.3873C34.015 84.0926 37.1391 84.7039 38.4357 83.1551Z" fill="#F1646D"/>
<path d="M34.6321 76.7918H42.2158C42.5555 76.7918 42.8235 76.4585 42.8235 76.0386C42.8235 75.472 42.5842 75.192 42.2158 75.192H34.6321C34.2924 75.192 34.0245 75.4253 34.0245 75.9452C34.0197 76.4185 34.2924 76.7918 34.6321 76.7918Z" fill="#F1646D"/>
<path d="M60.4217 95.3868V76.6183C60.4217 74.7166 57.5922 74.7166 57.5922 76.6183V95.3868C57.5922 97.8971 55.5983 99.7988 53.1328 99.7988C50.8109 99.7988 48.9605 98.3281 48.6734 96.1373C48.6734 91.5073 44.7574 87.6684 40.0417 87.6684C35.326 87.6684 31.4458 91.5428 31.4099 96.1373C31.1587 98.2165 29.2366 99.7988 26.9864 99.7988C24.5209 99.7988 22.527 97.8616 22.527 95.3868C22.527 89.3926 18.9338 85.4827 13.8593 85.4827C9.1795 85.4827 5.22754 89.3926 5.22754 94.0227C5.22754 100.696 11.8295 103.425 16.1813 102.279C18.1393 101.777 17.2321 99.0837 15.4175 99.6213C12.4805 100.412 8.05183 98.5462 8.05183 94.0227C8.05183 90.8633 10.7018 88.282 13.8542 88.282C17.3346 88.282 19.6924 90.8278 19.6924 95.3868C19.6924 99.3322 22.9678 102.532 26.8736 102.593V102.598H26.9812H27.0889V102.593C29.1494 102.563 31.1023 101.675 32.4197 100.265C33.8344 102.923 36.7714 104.789 40.0365 104.789C43.3016 104.789 46.2387 102.887 47.6893 100.23C49.0015 101.629 50.9339 102.547 52.9842 102.588V102.598H53.1277H53.2353V102.593C57.1104 102.532 60.4217 99.3322 60.4217 95.3868ZM40.0365 101.99C36.8432 101.99 34.2701 99.4032 34.2701 96.2134C34.2701 93.0541 36.8432 90.5083 40.0365 90.5083C43.2299 90.5083 45.8389 93.0541 45.8389 96.2134C45.844 99.4083 43.2299 101.99 40.0365 101.99Z" fill="#F1646D"/>
<path d="M13.6563 118.771H6.77457V107.546C6.77457 107.131 6.43121 106.787 6.01531 106.787C5.61875 106.787 5.27539 107.126 5.27539 107.546V119.4C5.27539 119.816 5.61875 120.159 6.01531 120.159H13.6563C14.0335 120.159 14.3382 119.854 14.3382 119.477C14.3382 119.1 14.0383 118.771 13.6563 118.771Z" fill="#243B67"/>
<path d="M27.9952 110.143C26.2881 110.143 25.2435 111.014 24.5423 112.097C24.0103 110.999 22.985 110.143 21.394 110.143C19.7449 110.143 18.8696 111.033 18.2264 112V110.995C18.2264 110.579 17.9023 110.255 17.4864 110.255C17.0899 110.255 16.7659 110.598 16.7659 110.995V119.511C16.7659 119.927 17.0899 120.251 17.5058 120.251C17.9217 120.251 18.2264 119.927 18.2264 119.511V114.564C18.2264 112.76 19.4015 111.473 20.9587 111.473C22.5159 111.473 23.4832 112.557 23.4832 114.394V119.516C23.4832 119.932 23.8072 120.256 24.2037 120.256C24.6196 120.256 24.9436 119.932 24.9436 119.516V114.506C24.9436 112.571 26.1575 111.473 27.6373 111.473C29.2284 111.473 30.1763 112.537 30.1763 114.433V119.516C30.1763 119.932 30.5003 120.256 30.9162 120.256C31.3127 120.256 31.6367 119.932 31.6367 119.516V114.09C31.6367 111.662 30.2536 110.143 27.9952 110.143Z" fill="#243B67"/>
<path d="M46.0336 110.143C44.3265 110.143 43.2819 111.014 42.5807 112.097C42.0487 110.999 41.0283 110.143 39.4324 110.143C37.7833 110.143 36.908 111.033 36.2648 112V110.995C36.2648 110.579 35.9408 110.255 35.5249 110.255C35.1283 110.255 34.8043 110.598 34.8043 110.995V119.511C34.8043 119.927 35.1283 120.251 35.5442 120.251C35.9601 120.251 36.2648 119.927 36.2648 119.511V114.564C36.2648 112.76 37.44 111.473 38.9972 111.473C40.5544 111.473 41.5216 112.557 41.5216 114.394V119.516C41.5216 119.932 41.8456 120.256 42.2422 120.256C42.6581 120.256 42.9821 119.932 42.9821 119.516V114.506C42.9821 112.571 44.1959 111.473 45.6758 111.473C47.2668 111.473 48.2147 112.537 48.2147 114.433V119.516C48.2147 119.932 48.5387 120.256 48.9546 120.256C49.3512 120.256 49.6752 119.932 49.6752 119.516V114.09C49.6752 111.662 48.2921 110.143 46.0336 110.143Z" fill="#243B67"/>
<path d="M59.7101 111.299C58.9895 110.579 57.9256 110.216 56.5425 110.216C55.2899 110.216 54.3034 110.463 53.3362 110.878C53.1476 110.956 52.9396 111.183 52.9396 111.483C52.9396 111.826 53.2443 112.107 53.5828 112.107C53.6602 112.107 53.7521 112.087 53.8488 112.049C54.5694 111.725 55.406 111.497 56.3877 111.497C58.2254 111.497 59.3087 112.407 59.3087 114.172V114.515C58.4382 114.269 57.5435 114.099 56.291 114.099C53.8053 114.099 52.0981 115.197 52.0981 117.267V117.306C52.0981 119.317 53.9358 120.357 55.759 120.357C57.4855 120.357 58.622 119.559 59.3039 118.669V119.559C59.3039 119.936 59.5892 120.241 60.0051 120.241C60.4017 120.241 60.7063 119.936 60.7063 119.521V114.152C60.7112 112.91 60.3726 111.962 59.7101 111.299ZM59.328 116.551C59.328 118.108 57.8482 119.206 56.0492 119.206C54.7193 119.206 53.5828 118.486 53.5828 117.252V117.214C53.5828 115.981 54.6081 115.183 56.4458 115.183C57.6403 115.183 58.6075 115.391 59.328 115.598V116.551Z" fill="#243B67"/>
</svg>
